<svg xmlns="http://www.w3.org/2000/svg" xmlns:xlink="http://www.w3.org/1999/xlink" width="262" zoomAndPan="magnify" viewBox="0 0 196.5 170.249993" height="227" preserveAspectRatio="xMidYMid meet" version="1.0"><defs><clipPath id="6ff11c5d45"><path d="M 15.851562 2.601562 L 180.152344 2.601562 L 180.152344 166.902344 L 15.851562 166.902344 Z M 15.851562 2.601562 " clip-rule="nonzero"/></clipPath><clipPath id="1ced5f5dcb"><path d="M 98 2.601562 C 52.628906 2.601562 15.851562 39.382812 15.851562 84.75 C 15.851562 130.121094 52.628906 166.902344 98 166.902344 C 143.371094 166.902344 180.152344 130.121094 180.152344 84.75 C 180.152344 39.382812 143.371094 2.601562 98 2.601562 Z M 98 2.601562 " clip-rule="nonzero"/></clipPath><clipPath id="0f6c6c2ffb"><path d="M 111 26.121094 L 163.542969 26.121094 L 163.542969 79 L 111 79 Z M 111 26.121094 " clip-rule="nonzero"/></clipPath></defs><g clip-path="url(#6ff11c5d45)"><g clip-path="url(#1ced5f5dcb)"><path fill="#d58936" d="M 15.851562 2.601562 L 180.152344 2.601562 L 180.152344 166.902344 L 15.851562 166.902344 Z M 15.851562 2.601562 " fill-opacity="1" fill-rule="nonzero"/></g></g><g clip-path="url(#0f6c6c2ffb)"><path fill="#3c1518" d="M 162.433594 44.070312 L 136.679688 68.242188 C 135.878906 69.042969 134.582031 69.042969 133.777344 68.242188 C 132.980469 67.441406 132.976562 66.140625 133.777344 65.34375 L 157.957031 39.589844 L 156.488281 38.121094 L 130.738281 62.300781 C 129.9375 63.101562 128.636719 63.101562 127.835938 62.300781 C 127.035156 61.5 127.035156 60.195312 127.835938 59.394531 L 152.011719 33.648438 L 150.546875 32.179688 L 124.796875 56.355469 C 123.992188 57.160156 122.695312 57.160156 121.894531 56.355469 C 121.09375 55.558594 121.09375 54.253906 121.894531 53.457031 L 146.070312 27.703125 L 144.609375 26.246094 L 114.109375 56.75 C 110.398438 60.460938 110.398438 66.476562 114.109375 70.1875 L 119.949219 76.027344 C 123.660156 79.734375 129.679688 79.734375 133.390625 76.027344 L 163.890625 45.527344 L 162.433594 44.070312 " fill-opacity="1" fill-rule="nonzero"/></g><path fill="#3c1518" d="M 114.761719 70.839844 L 49.839844 129.863281 C 46.960938 132.746094 46.960938 137.414062 49.839844 140.292969 C 52.722656 143.175781 57.390625 143.175781 60.269531 140.292969 L 119.296875 75.375 L 114.761719 70.839844 " fill-opacity="1" fill-rule="nonzero"/><path fill="#3c1518" d="M 73.855469 75.375 L 132.878906 140.292969 C 135.757812 143.175781 140.429688 143.175781 143.308594 140.292969 C 146.1875 137.414062 146.1875 132.746094 143.308594 129.863281 L 78.390625 70.839844 L 73.855469 75.375 " fill-opacity="1" fill-rule="nonzero"/><path fill="#3c1518" d="M 72.335938 44.804688 C 60.640625 33.105469 45.671875 29.113281 38.898438 35.886719 C 32.128906 42.660156 36.121094 57.625 47.816406 69.324219 C 59.511719 81.015625 74.484375 85.007812 81.253906 78.242188 C 88.023438 71.46875 84.03125 56.5 72.335938 44.804688 " fill-opacity="1" fill-rule="nonzero"/></svg>