<svg xmlns="http://www.w3.org/2000/svg" xmlns:xlink="http://www.w3.org/1999/xlink" width="1920" zoomAndPan="magnify" viewBox="0 0 1440 809.999993" height="1080" preserveAspectRatio="xMidYMid meet" version="1.0"><defs><clipPath id="95dc590a38"><path d="M 315 0 L 1124.996094 0 L 1124.996094 809.996094 L 315 809.996094 Z M 315 0 " clip-rule="nonzero"/></clipPath><clipPath id="f4bd9acef7"><path d="M 719.996094 0 C 496.324219 0 315 181.324219 315 404.996094 C 315 628.671875 496.324219 809.996094 719.996094 809.996094 C 943.671875 809.996094 1124.996094 628.671875 1124.996094 404.996094 C 1124.996094 181.324219 943.671875 0 719.996094 0 Z M 719.996094 0 " clip-rule="nonzero"/></clipPath><clipPath id="d98897d253"><path d="M 475.378906 125.289062 L 965 125.289062 L 965 684.78125 L 475.378906 684.78125 Z M 475.378906 125.289062 " clip-rule="nonzero"/></clipPath></defs><g clip-path="url(#95dc590a38)"><g clip-path="url(#f4bd9acef7)"><path stroke-linecap="butt" transform="matrix(0.862083, 0, 0, 0.862083, 314.99999, 0.00002)" fill="none" stroke-linejoin="miter" d="M 469.787738 -0.0000231996 C 210.332639 -0.0000231996 0.0000111648 210.332604 0.0000111648 469.787703 C 0.0000111648 729.247334 210.332639 939.579961 469.787738 939.579961 C 729.247368 939.579961 939.579995 729.247334 939.579995 469.787703 C 939.579995 210.332604 729.247368 -0.0000231996 469.787738 -0.0000231996 Z M 469.787738 -0.0000231996 " stroke="#69140e" stroke-width="34.799423" stroke-opacity="1" stroke-miterlimit="4"/></g></g><g clip-path="url(#d98897d253)"><path fill="#69140e" d="M 929.664062 125.433594 C 912.195312 125.433594 789.886719 160.378906 789.886719 317.628906 L 789.886719 439.9375 C 789.886719 478.488281 821.226562 509.828125 859.777344 509.828125 L 894.722656 509.828125 L 894.722656 649.609375 C 894.722656 668.9375 910.335938 684.554688 929.664062 684.554688 C 948.996094 684.554688 964.609375 668.9375 964.609375 649.609375 L 964.609375 160.378906 C 964.609375 141.046875 948.996094 125.433594 929.664062 125.433594 Z M 545.269531 142.90625 C 545.269531 133.949219 538.609375 126.523438 529.652344 125.542969 C 520.699219 124.558594 512.726562 130.457031 510.761719 139.082031 L 477.671875 287.925781 C 476.144531 294.808594 475.378906 301.796875 475.378906 308.785156 C 475.378906 358.910156 513.710938 400.078125 562.742188 404.554688 L 562.742188 649.609375 C 562.742188 668.9375 578.359375 684.554688 597.6875 684.554688 C 617.015625 684.554688 632.632812 668.9375 632.632812 649.609375 L 632.632812 404.554688 C 681.664062 400.078125 719.996094 358.910156 719.996094 308.785156 C 719.996094 301.796875 719.230469 294.808594 717.703125 287.925781 L 684.613281 139.082031 C 682.648438 130.347656 674.457031 124.558594 665.613281 125.542969 C 656.765625 126.523438 650.105469 133.949219 650.105469 142.90625 L 650.105469 289.457031 C 650.105469 295.351562 645.300781 300.15625 639.402344 300.15625 C 633.832031 300.15625 629.246094 295.898438 628.699219 290.328125 L 615.050781 141.375 C 614.285156 132.3125 606.75 125.433594 597.6875 125.433594 C 588.625 125.433594 581.089844 132.3125 580.324219 141.375 L 566.78125 290.328125 C 566.238281 295.898438 561.648438 300.15625 556.082031 300.15625 C 550.183594 300.15625 545.378906 295.351562 545.378906 289.457031 Z M 598.015625 308.894531 L 597.359375 308.894531 L 597.6875 308.128906 Z M 598.015625 308.894531 " fill-opacity="1" fill-rule="nonzero"/></g></svg>